<?xml version="1.0" standalone="no"?>
<!DOCTYPE svg PUBLIC "-//W3C//DTD SVG 20010904//EN"
 "http://www.w3.org/TR/2001/REC-SVG-20010904/DTD/svg10.dtd">
<svg version="1.0" xmlns="http://www.w3.org/2000/svg"
 width="31.000000pt" height="31.000000pt" viewBox="0 0 31.000000 31.000000"
 preserveAspectRatio="xMidYMid meet">

<g transform="translate(0.000000,31.000000) scale(0.100000,-0.100000)"
fill="#000000" stroke="none">
<path d="M186 241 c-4 -5 4 -7 16 -3 18 4 20 2 15 -18 -4 -16 -3 -20 5 -12 6
6 8 18 5 26 -7 17 -32 21 -41 7z"/>
<path d="M175 210 c-3 -5 1 -10 10 -10 9 0 13 5 10 10 -3 6 -8 10 -10 10 -2 0
-7 -4 -10 -10z"/>
<path d="M123 183 c-19 -7 -16 -40 3 -47 14 -5 15 -4 4 9 -10 12 -10 18 0 30
13 16 13 16 -7 8z"/>
<path d="M72 160 c0 -14 2 -19 5 -12 2 6 2 18 0 25 -3 6 -5 1 -5 -13z"/>
<path d="M175 110 c4 -6 11 -8 16 -5 14 9 11 15 -7 15 -8 0 -12 -5 -9 -10z"/>
<path d="M218 98 c4 -18 2 -20 -18 -15 -16 4 -20 3 -12 -5 6 -6 18 -8 26 -5
17 7 21 32 7 41 -5 4 -7 -4 -3 -16z"/>
</g>
</svg>
